# xmcd
#
# Track frame offsets:
#	150
#	17587
#	34837
#	48125
#	66612
#	90825
#	109500
#	126800
#	140775
#	160962
#
# Disc length: 2415 seconds
#
# Revision: 0
# Processed by: cddbd v1.5.1PL0 Copyright (c) Steve Scherf et al.
# Submitted via: MusicWizard 7.1.1b
#
DISCID=80096d0a
DTITLE=Roy Hollingworth - In The Flesh
DYEAR=1994
DGENRE=Rock and Pop
TTITLE0=Hungry Youth
TTITLE1=In The Flesh
TTITLE2=The Screen Sees All
TTITLE3=Hollywood Lines
TTITLE4=Love Takes It All
TTITLE5=Milk Kisses
TTITLE6=Don't Wanna Wanna
TTITLE7=Mandi Moonshine
TTITLE8=Good Enough To Bleed For
TTITLE9=We The People
EXTD=
EXTT0=
EXTT1=
EXTT2=
EXTT3=
EXTT4=
EXTT5=
EXTT6=
EXTT7=
EXTT8=
EXTT9=
PLAYORDER=
